<?xml version="1.0" encoding="UTF-8"?>
<svg width="100pt" height="100pt" version="1.1" viewBox="0 0 100 100" xmlns="http://www.w3.org/2000/svg">
 <path transform="matrix(.5 0 0 .5 1.75 0)" d="m121.8 182.7" fill="none" stroke="#000" stroke-miterlimit="10" stroke-width="6"/>
 <path transform="matrix(.5 0 0 .5 1.75 0)" d="m121.8 23" fill="none" stroke="#000" stroke-miterlimit="10" stroke-width="6"/>
 <path d="m19.25 16.949l0.050781-5.3008c0-0.19922 0.14844-0.35156 0.30078-0.39844l41.949-7.75h0.19922l20.102 2.4492c0.19922 0.050781 0.30078 0.19922 0.30078 0.39844v5.3516c0 0.25-0.19922 0.39844-0.44922 0.39844l-20.102-2.5-41.852 7.7539c-0.25 0.046876-0.5-0.15234-0.5-0.40234z"/>
 <path d="m92.352 89.352h-4.75v-69.852l0.60156 0.050781c0.19922 0 0.39844-0.14844 0.39844-0.35156v-5.3008c0-0.19922-0.14844-0.30078-0.30078-0.35156l-26.75-3.1016-53.102 9.8555c-0.19922 0.050781-0.35156 0.25-0.35156 0.44922l0.15234 5.1484c0 0.25 0.25 0.44922 0.5 0.39844l0.94922-0.19922v63.199l-3.75 0.003906c-0.64844 0-1.1992 0.55078-1.1992 1.1992v5.5508c0 0.64844 0.55078 1.1992 1.1992 1.1992h86.398c0.64844 0 1.1992-0.55078 1.1992-1.1992v-5.5508c0.003906-0.60156-0.49609-1.1484-1.1953-1.1484zm-76.602-64.301l45.898-8.5v72.801h-45.898z"/>
 <path d="m29.699 83.352h-11v-9.9531l11-0.34766z"/>
 <path d="m43.648 83.352h-10.949v-10.402l10.949-0.30078z"/>
 <path d="m57.648 83.352h-11v-10.801l11-0.35156z"/>
 <path d="m29.699 68.301l-11 0.30078v-10.203l11-0.59766z"/>
 <path d="m43.648 67.852l-10.949 0.34766v-10.598l10.949-0.70312z"/>
 <path d="m57.648 67.449l-11 0.35156v-11.102l11-0.69922z"/>
 <path d="m29.699 53.25l-11 0.85156v-10.652l11-1.3984z"/>
 <path d="m43.648 52.199l-10.949 0.85156v-11.352l10.949-1.3008z"/>
 <path d="m57.648 51.301l-11 0.64844v-11.898l11-1.0508z"/>
 <path d="m29.699 37.852l-11 1.3984v-10.25l11-1.75z"/>
 <path d="m43.648 36.102l-10.949 1.3984v-10.699l10.949-1.75z"/>
 <path d="m57.648 34.352l-11 1.3984v-11.199l11-1.75z"/>
</svg>
