<?xml version="1.0" encoding="UTF-8"?>
<svg width="100pt" height="100pt" version="1.1" viewBox="0 0 100 100" xmlns="http://www.w3.org/2000/svg">
 <path d="m50.012 0c-10.551 0-19.145 8.5938-19.145 19.148v8.3047h6.25v-8.3047c0-7.1992 5.6992-12.898 12.898-12.898s12.898 5.6992 12.898 12.898l-0.003906 8.3047h6.25v-8.3047c0-10.555-8.5938-19.148-19.148-19.148zm19.148 27.453v9.1602c0.09375 4.2617-6.3438 4.2617-6.25 0v-9.1602h-25.793v9.1602c0.09375 4.2617-6.3438 4.2617-6.25 0v-9.1602h-12.988c-0.10938-0.003906-0.21484-0.003906-0.32422 0-1.5977 0.16016-2.8164 1.5078-2.8164 3.1133v66.297c-0.003906 1.7344 1.4023 3.1445 3.1406 3.1367h64.27c1.7227-0.007812 3.1172-1.4102 3.1133-3.1367v-66.297c-0.007813-1.7148-1.3984-3.1055-3.1133-3.1133z"/>
</svg>
