<?xml version="1.0" encoding="UTF-8"?>
<svg width="100pt" height="100pt" version="1.1" viewBox="0 0 100 100" xmlns="http://www.w3.org/2000/svg">
 <g>
  <path d="m85.926 100c-3.6484 0-5.6094-1.3633-7.1836-2.457-1.375-0.95703-2.4609-1.7109-4.8047-1.7109-2.3398 0-3.4258 0.75391-4.8008 1.7109-1.5742 1.0938-3.5312 2.457-7.1797 2.457-3.6445 0-5.6016-1.3633-7.1758-2.457-1.3711-0.95703-2.457-1.7109-4.7969-1.7109s-3.4258 0.75391-4.8008 1.7109c-1.5703 1.0938-3.5312 2.457-7.1758 2.457-3.6484 0-5.6055-1.3633-7.1758-2.457-1.375-0.95703-2.4609-1.7109-4.7969-1.7109-2.3398 0-3.4258 0.75391-4.7969 1.7109-1.5742 1.0938-3.5352 2.457-7.1797 2.457-3.6445 0-5.6055-1.3633-7.1758-2.457-1.375-0.95703-2.457-1.7109-4.8008-1.7109-1.1484 0-2.082-0.93359-2.082-2.082s0.93359-2.082 2.082-2.082c3.6484 0 5.6055 1.3633 7.1758 2.457 1.375 0.95312 2.4609 1.707 4.8008 1.707s3.4258-0.75391 4.7969-1.7109c1.5703-1.0938 3.5312-2.4531 7.1797-2.4531 3.6484 0 5.6055 1.3633 7.1758 2.457 1.3711 0.95312 2.457 1.707 4.7969 1.707 2.3398 0 3.4258-0.75391 4.7969-1.7109 1.5742-1.0938 3.5312-2.4531 7.1797-2.4531 3.6445 0 5.6016 1.3633 7.1758 2.457 1.375 0.95312 2.457 1.707 4.7969 1.707 2.3398 0 3.4258-0.75391 4.8008-1.7109 1.5703-1.0938 3.5312-2.4531 7.1797-2.4531s5.6094 1.3633 7.1836 2.457c1.375 0.95312 2.4609 1.707 4.8047 1.707s3.4297-0.75391 4.8047-1.7109c1.5781-1.0938 3.5352-2.4531 7.1875-2.4531 1.1484 0 2.082 0.93359 2.082 2.082s-0.93359 2.082-2.082 2.082c-2.3438 0-3.4297 0.75391-4.8047 1.7109-1.5742 1.0938-3.5352 2.457-7.1875 2.457z"/>
  <path d="m54.453 52.395c-2.9766-0.41406-5.9219-0.41797-8.9141 0-15.273 2.1875-26.789 15.488-26.789 30.938v2.082c0 1.1484 0.93359 2.082 2.082 2.082h58.332c1.1484 0 2.082-0.93359 2.082-2.082v-2.082c0.003906-15.449-11.512-28.75-26.793-30.938z"/>
  <path d="m83.332 87.5h-66.664c-1.1484 0-2.082-0.93359-2.082-2.082 0-1.1484 0.93359-2.082 2.082-2.082h66.668c1.1484 0 2.082 0.93359 2.082 2.082 0 1.1484-0.93359 2.082-2.0859 2.082z"/>
  <path d="m44.949 48.27c1.6953-0.23438 3.3867-0.35547 5.0547-0.35547 1.6641 0 3.3555 0.11719 5.0273 0.35156 0.41406 0.058594 0.8125 0.16016 1.2227 0.23438l-0.003906-20.145c0-5.3086-1.5586-10.469-4.5156-14.922-0.77344-1.1641-2.6992-1.1641-3.4727 0-2.9531 4.4492-4.5117 9.6133-4.5117 14.922v20.145c0.40234-0.070312 0.79297-0.17188 1.1992-0.23047z"/>
  <path d="m24.996 25c-0.39453 0-0.79688-0.11328-1.1523-0.35156-0.95703-0.63672-1.2148-1.9297-0.57812-2.8906 9.043-13.566 26.5-9.3867 27.238-9.1992 1.1133 0.27734 1.793 1.4062 1.5156 2.5234-0.27344 1.1172-1.3984 1.793-2.5195 1.5195-0.62109-0.15234-15.363-3.6328-22.766 7.4648-0.40234 0.60938-1.0625 0.93359-1.7383 0.93359z"/>
  <path d="m50 16.668c-0.80469 0-1.5664-0.46875-1.9062-1.2422-0.17578-0.32031-4.9062-8.5273-12.152-10.754-3.332-1.0234-6.5742-0.59766-9.9102 1.3008-1 0.57031-2.2734 0.21875-2.8398-0.78125-0.57031-1-0.21875-2.2734 0.78125-2.8398 4.5469-2.5859 9.2031-3.0742 13.84-1.4492 8.3633 2.9297 13.664 11.758 14.121 12.91 0.42578 1.0703-0.09375 2.2812-1.1641 2.707-0.25 0.10156-0.51172 0.14844-0.76953 0.14844z"/>
  <path d="m75.004 25c-0.67188 0-1.332-0.32422-1.7344-0.92578-7.4297-11.145-22.613-7.5078-22.762-7.4648-1.1133 0.28125-2.2461-0.39844-2.5273-1.5156-0.27734-1.1172 0.39844-2.2461 1.5156-2.5273 0.73828-0.18359 18.195-4.3672 27.238 9.1992 0.63672 0.95703 0.37891 2.2539-0.57812 2.8906-0.35547 0.23047-0.75781 0.34375-1.1523 0.34375z"/>
  <path d="m49.992 16.629c-0.27734 0-0.55469-0.054687-0.82422-0.17188-1.0234-0.45312-1.5195-1.6055-1.1055-2.6445 0.46094-1.1523 5.7617-9.9766 14.121-12.91 4.6367-1.6211 9.293-1.1367 13.84 1.4492 1 0.57031 1.3477 1.8398 0.78125 2.8398-0.57031 0.99609-1.8398 1.3516-2.8398 0.78125-3.3398-1.8984-6.582-2.3242-9.9102-1.3008-7.3555 2.2617-12.117 10.68-12.16 10.766-0.35938 0.74219-1.1211 1.1914-1.9023 1.1914z"/>
 </g>
</svg>
