<?xml version="1.0" encoding="UTF-8"?>
<svg width="100pt" height="100pt" version="1.1" viewBox="0 0 100 100" xmlns="http://www.w3.org/2000/svg">
 <g>
  <path d="m21.07 82.781h57.855c6.8047-5.582 14.793-15.863 15.039-33.477h-87.93c0.24219 17.613 8.2305 27.895 15.035 33.477zm-5.5234-27.633c0.44922-0.054688 0.88281 0.28125 0.92188 0.73437 0.019531 0.13281 1.4102 11.035 8.8359 17.445 0.35547 0.30078 0.39453 0.82812 0.09375 1.1836-0.16797 0.1875-0.39453 0.28125-0.64063 0.28125-0.1875 0-0.39453-0.074219-0.54687-0.20703-7.9336-6.8438-9.3594-18.047-9.418-18.516-0.019531-0.44922 0.30078-0.86328 0.75391-0.92187z"/>
  <path d="m79.512 84.438h-59.023c-2.2734 0-4.1367 1.8594-4.1367 4.1367 0 2.2734 1.8594 4.1367 4.1367 4.1367h59.023c2.2734 0 4.1367-1.8594 4.1367-4.1367 0-2.2773-1.8633-4.1367-4.1367-4.1367z"/>
  <path d="m88.836 43.742c-0.20703-0.054688-0.39453-0.20703-0.48828-0.41406-0.69531-1.2969-2.293-2.4453-4.3984-3.1406-0.33984-0.11328-0.5625-0.43359-0.5625-0.78906-0.019531-2.5-4.8867-5.3555-9.1172-5.3555-0.1875 0-0.39453 0-0.58203 0.019531h-0.039062c-5.2812 0.14844-9.3789 2.8203-9.7734 3.9492-0.13281 0.375-0.48828 0.60156-0.88281 0.5625-0.375-0.039063-0.67578-0.33984-0.73438-0.71484-0.22656-0.39453-2.0859-1.1289-5-1.1289-2.6133 0-5.9219 0.67578-6.6172 2.5742-0.11328 0.33984-0.43359 0.54687-0.78906 0.54687-0.35547 0-0.65625-0.22656-0.78906-0.5625-0.90234-2.5391-4.9258-4.3594-9.5859-4.3594-3.7227 0-7.0859 1.1641-8.7773 3.0469-0.20703 0.22656-0.52734 0.33984-0.82812 0.24609-1.0898-0.28125-2.4805-0.43359-3.9102-0.43359-4.043 0-9.043 1.2227-9.832 4.6445-0.09375 0.375-0.41406 0.64062-0.78906 0.64062-4.625 0.11328-8.4766 2.0664-9.1914 4.5117h87.762c-0.48828-1.5703-2.3672-3.0352-5.0742-3.8438z"/>
  <path d="m50.75 26.617c-0.32031 0.33984-0.32031 0.86328 0.019531 1.1836 0.16797 0.14844 0.375 0.22656 0.58203 0.22656 0.22656 0 0.43359-0.09375 0.60156-0.26172 1.2227-1.2773 0.22656-3.0469-0.82812-4.9453-1.1094-1.9922-2.3672-4.2305-1.5039-6.1836 0.1875-0.41406 0-0.92188-0.43359-1.1094-0.41406-0.1875-0.92188 0-1.1094 0.43359-1.1836 2.707 0.33984 5.4492 1.5781 7.668 0.66406 1.1641 1.4531 2.6133 1.0938 2.9883z"/>
  <path d="m61.07 31.578c-0.32031 0.33984-0.32031 0.86328 0.019532 1.1836 0.16797 0.14844 0.375 0.22656 0.58203 0.22656 0.22656 0 0.43359-0.09375 0.60156-0.26172 1.2227-1.2773 0.22656-3.0469-0.82813-4.9453-1.1094-1.9922-2.3672-4.2305-1.5234-6.1836 0.1875-0.41406 0-0.92188-0.43359-1.1094-0.41406-0.1875-0.92188 0-1.1094 0.43359-1.1836 2.707 0.35547 5.4492 1.5781 7.668 0.68359 1.1641 1.4922 2.6133 1.1133 2.9883z"/>
  <path d="m63.215 18.422c-0.32031 0.33984-0.32031 0.86328 0.019531 1.1836 0.16797 0.14844 0.375 0.22656 0.58203 0.22656 0.22656 0 0.43359-0.09375 0.60156-0.26172 1.2227-1.2773 0.22656-3.0469-0.82812-4.9453-1.1094-1.9922-2.3672-4.2305-1.5039-6.1836 0.1875-0.41406 0-0.92188-0.43359-1.1094-0.41406-0.1875-0.92188 0-1.1094 0.43359-1.1836 2.707 0.35547 5.4492 1.5781 7.668 0.66016 1.1836 1.4688 2.6133 1.0938 2.9883z"/>
  <path d="m15.375 28.477c-0.32031 0.33984-0.32031 0.86328 0.019531 1.1836 0.16797 0.14844 0.375 0.22656 0.58203 0.22656 0.22656 0 0.43359-0.09375 0.60156-0.26172 1.2227-1.2773 0.22656-3.0625-0.82812-4.9453-1.1094-1.9922-2.3672-4.2305-1.5234-6.1836 0.1875-0.41406 0-0.92188-0.43359-1.1094-0.41406-0.1875-0.92188 0-1.1094 0.43359-1.1836 2.707 0.35547 5.4492 1.5977 7.668 0.66406 1.1836 1.4688 2.6133 1.0938 2.9883z"/>
  <path d="m25.715 33.441c-0.32031 0.33984-0.32031 0.86328 0.019531 1.1836 0.16797 0.14844 0.375 0.24609 0.58203 0.24609 0.22656 0 0.43359-0.09375 0.60156-0.26172 1.2227-1.2578 0.22656-3.0469-0.82812-4.9453-1.1094-1.9922-2.3672-4.2305-1.5039-6.1836 0.1875-0.41406 0-0.92188-0.43359-1.1094-0.41406-0.1875-0.92188 0-1.1094 0.43359-1.1836 2.707 0.35547 5.4492 1.5781 7.668 0.64062 1.1641 1.4492 2.5898 1.0938 2.9688z"/>
  <path d="m27.855 20.301c-0.32031 0.33984-0.32031 0.86328 0.019531 1.1836 0.16797 0.14844 0.375 0.22656 0.58203 0.22656 0.22656 0 0.43359-0.09375 0.60156-0.26172 1.2227-1.2773 0.22656-3.0625-0.82812-4.9453-1.1094-1.9922-2.3672-4.2305-1.5039-6.1836 0.1875-0.41406 0-0.92187-0.43359-1.1094-0.41406-0.1875-0.92188 0-1.1094 0.43359-1.1836 2.707 0.35547 5.4492 1.5781 7.668 0.66406 1.1641 1.4531 2.6133 1.0938 2.9883z"/>
 </g>
</svg>
